<svg xmlns="http://www.w3.org/2000/svg" width="512" height="512" viewBox="0 0 512 512" fill="none" role="img" aria-label="Promo belum ada">
<defs>
 <linearGradient id="indigo" x1="80" y1="80" x2="400" y2="410" gradientUnits="userSpaceOnUse"><stop stop-color="#7779F7"/><stop offset="1" stop-color="#5558E8"/></linearGradient>
 <linearGradient id="deep" x1="90" y1="100" x2="340" y2="410" gradientUnits="userSpaceOnUse"><stop stop-color="#3746D3"/><stop offset="1" stop-color="#1D29B8"/></linearGradient>
 <linearGradient id="soft" x1="100" y1="100" x2="400" y2="400" gradientUnits="userSpaceOnUse"><stop stop-color="#F1F1FF"/><stop offset="1" stop-color="#DBDDFF"/></linearGradient>
 <filter id="shade" x="-30%" y="-30%" width="160%" height="160%"><feGaussianBlur stdDeviation="7"/></filter>
</defs>
<path d="M90 175C106 110 175 107 221 121c49 14 67-23 132 1 68 25 88 91 65 153-20 57-73 111-161 113-81 2-146-30-168-86-15-40-9-85 1-127Z" fill="#EFEFFF"/>
<ellipse cx="255" cy="406" rx="146" ry="11" fill="#0F2747" opacity=".08" filter="url(#shade)"/>
<circle cx="101" cy="160" r="6" fill="#FBBF24"/><circle cx="403" cy="196" r="5" fill="#5558E8" opacity=".55"/>

<path d="M105 193h304v51a26 26 0 0 0 0 52v51H105v-51a26 26 0 0 0 0-52v-51Z" fill="#fff" stroke="#1D29B8" stroke-width="7" stroke-linejoin="round"/>
<path d="M105 193h57v154h-57v-51a26 26 0 0 0 0-52v-51Z" fill="url(#indigo)" stroke="#1D29B8" stroke-width="6"/>
<path d="M183 196v14m0 18v14m0 18v14m0 18v14m0 18v18" stroke="#ABB0F3" stroke-width="6" stroke-linecap="round"/>
<circle cx="244" cy="235" r="18" fill="#D8DAFF" stroke="#5558E8" stroke-width="6"/><circle cx="342" cy="303" r="18" fill="#D8DAFF" stroke="#5558E8" stroke-width="6"/><path d="m238 316 109-90" stroke="#5558E8" stroke-width="12" stroke-linecap="round"/>
<path d="m371 144 5 13 13 5-13 5-5 13-5-13-13-5 13-5 5-13Z" fill="#FBBF24"/>
</svg>
